<?xml version="1.0" encoding="UTF-8"?>
<!-- Generator: Adobe Illustrator 24.3.0, SVG Export Plug-In . SVG Version: 6.00 Build 0)  -->
<svg xmlns="http://www.w3.org/2000/svg" xmlns:xlink="http://www.w3.org/1999/xlink" version="1.1" id="Layer_1" x="0px" y="0px" viewBox="0 0 1200 356.16" style="enable-background:new 0 0 1200 356.16;" xml:space="preserve">
<style type="text/css">
	.st0{fill:#FFFFFF;}
	.st1{fill:#FFB229;}
</style>
<g>
	<g>
		<path class="st0" d="M3.77,266.52h58.38v8.91H37.78v61.08H27.73v-61.08H3.77V266.52z"></path>
		<path class="st0" d="M99.24,265.62c10.8,0,19.79,3.42,26.97,10.25c7.18,6.84,10.77,15.41,10.77,25.71    c0,10.31-3.62,18.83-10.87,25.59c-7.25,6.75-16.39,10.13-27.42,10.13c-10.53,0-19.31-3.38-26.32-10.13    c-7.02-6.75-10.52-15.22-10.52-25.39c0-10.44,3.53-19.08,10.6-25.91C79.51,269.04,88.44,265.62,99.24,265.62z M99.64,275.13    c-8,0-14.57,2.5-19.72,7.51c-5.15,5-7.72,11.39-7.72,19.16c0,7.54,2.58,13.81,7.75,18.81c5.16,5,11.63,7.5,19.39,7.5    c7.8,0,14.3-2.55,19.52-7.65c5.21-5.1,7.82-11.46,7.82-19.06c0-7.4-2.61-13.63-7.82-18.69    C113.64,277.65,107.24,275.13,99.64,275.13z"></path>
		<path class="st0" d="M148.74,336.51v-69.99h22.16c6.67,0,11.99,1.8,15.96,5.4c3.97,3.6,5.95,8.44,5.95,14.51    c0,4.07-1.02,7.67-3.05,10.81c-2.03,3.13-4.82,5.41-8.35,6.83c-3.54,1.42-8.6,2.13-15.21,2.13h-7.4v30.32H148.74z M169.15,275.43    H158.8v21.86h10.96c4.07,0,7.2-0.96,9.4-2.88c2.2-1.92,3.3-4.66,3.3-8.23C182.46,279.01,178.02,275.43,169.15,275.43z"></path>
		<path class="st0" d="M300.42,340.91l-10.05,9.76c-3.13-0.17-6.41-0.73-9.82-1.68c-3.42-0.95-6.88-2.26-10.4-3.93    c-3.52-1.67-8.21-4.52-14.07-8.56c-8.5-1.53-15.51-5.57-21.02-12.11c-5.52-6.54-8.28-14.07-8.28-22.61    c0-10.44,3.55-19.08,10.65-25.91c7.1-6.84,16.08-10.25,26.95-10.25c10.8,0,19.77,3.39,26.92,10.18    c7.15,6.79,10.72,15.32,10.72,25.59c0,8.64-2.7,16.23-8.1,22.76c-5.4,6.54-12.38,10.66-20.95,12.36l2.65,1    c8.23,3.17,14.17,4.75,17.8,4.75C295.42,342.26,297.75,341.81,300.42,340.91z M264.38,275.13c-7.86,0-14.36,2.54-19.49,7.6    c-5.13,5.07-7.7,11.46-7.7,19.16c0,7.5,2.58,13.75,7.75,18.73c5.16,4.99,11.64,7.48,19.44,7.48c7.7,0,14.18-2.55,19.44-7.65    c5.26-5.1,7.9-11.39,7.9-18.86c0-7.64-2.58-13.96-7.75-18.96C278.8,277.63,272.27,275.13,264.38,275.13z"></path>
		<path class="st0" d="M362.95,266.62h10.06v39.67c0,5.37-0.39,9.42-1.18,12.16c-0.79,2.73-1.75,5.01-2.9,6.83    c-1.15,1.82-2.56,3.44-4.23,4.88c-5.54,4.77-12.77,7.15-21.71,7.15c-9.11,0-16.41-2.37-21.91-7.1c-1.67-1.47-3.08-3.11-4.23-4.93    c-1.15-1.82-2.1-4.04-2.85-6.68c-0.75-2.63-1.13-6.77-1.13-12.41v-39.57h10.06v39.67c0,6.57,0.75,11.14,2.25,13.71    c1.5,2.57,3.78,4.63,6.85,6.18c3.07,1.55,6.69,2.33,10.85,2.33c5.94,0,10.77-1.55,14.51-4.65c1.97-1.67,3.38-3.64,4.25-5.9    c0.87-2.27,1.3-6.15,1.3-11.66V266.62z"></path>
		<path class="st0" d="M406.63,266.22h7.03L445,336.51h-10.24l-9.31-20.71h-29.82l-8.73,20.71h-10.28L406.63,266.22z M421.33,306.89    l-11.28-25.31l-10.46,25.31H421.33z"></path>
		<path class="st0" d="M452.65,266.62h10.01v60.78h31.47v9.1h-41.47V266.62z"></path>
		<path class="st0" d="M502.98,266.62h10.01v69.89h-10.01V266.62z"></path>
		<path class="st0" d="M522.54,266.52h58.38v8.91h-24.36v61.08H546.5v-61.08h-23.96V266.52z"></path>
		<path class="st0" d="M632.4,266.62h12.14l-25.81,32.92v36.97h-10.25v-36.97l-25.81-32.92h12.08l18.7,24.09L632.4,266.62z"></path>
		<path class="st0" d="M823.14,266.62h10.01v69.89h-10.01V266.62z"></path>
		<path class="st0" d="M904.18,266.62h9.5v69.89h-8.6l-46.72-53.82v53.82h-9.4v-69.89h8.1l47.12,54.28V266.62z"></path>
		<path class="st0" d="M928.65,266.62h39.62v8.9h-29.62v21.31h28.61v8.95h-28.61v21.71h30.57v8.9h-40.57V266.62z"></path>
		<path class="st0" d="M980.17,336.51v-69.89h17.51c7.07,0,12.68,1.75,16.83,5.25c4.15,3.5,6.23,8.24,6.23,14.21    c0,4.07-1.02,7.59-3.05,10.56c-2.03,2.97-4.95,5.19-8.75,6.65c2.23,1.47,4.42,3.47,6.55,6c2.13,2.54,5.13,6.95,9,13.26    c2.43,3.97,4.39,6.95,5.85,8.96l3.7,5h-11.9l-3.05-4.61c-0.1-0.17-0.3-0.45-0.6-0.85l-1.95-2.75l-3.1-5.11l-3.35-5.46    c-2.06-2.87-3.96-5.15-5.68-6.85c-1.72-1.7-3.27-2.92-4.66-3.67c-1.39-0.75-3.71-1.12-6.99-1.12h-2.6v30.42H980.17z     M993.18,275.13h-3v22.06h3.8c5.07,0,8.55-0.43,10.43-1.3c1.88-0.87,3.35-2.18,4.4-3.93c1.05-1.75,1.58-3.74,1.58-5.98    c0-2.2-0.58-4.19-1.75-5.98c-1.17-1.78-2.81-3.04-4.93-3.78C1001.59,275.5,998.08,275.13,993.18,275.13z"></path>
		<path class="st0" d="M1064.07,266.22h7.03l31.34,70.29h-10.24l-9.31-20.71h-29.82l-8.73,20.71h-10.28L1064.07,266.22z     M1078.77,306.89l-11.28-25.31l-10.46,25.31H1078.77z"></path>
		<path class="st0" d="M1110.09,266.62h10.01v60.78h31.47v9.1h-41.47V266.62z"></path>
		<path class="st0" d="M1177.62,307.23l-7.6-4.62c-4.77-2.91-8.16-5.78-10.18-8.6c-2.02-2.82-3.03-6.06-3.03-9.73    c0-5.5,1.91-9.97,5.73-13.41c3.82-3.43,8.78-5.15,14.88-5.15c5.84,0,11.19,1.64,16.06,4.92v11.36    c-5.03-4.84-10.45-7.27-16.26-7.27c-3.27,0-5.95,0.76-8.05,2.27c-2.1,1.51-3.15,3.45-3.15,5.8c0,2.09,0.77,4.05,2.32,5.88    c1.55,1.83,4.04,3.75,7.47,5.76l7.64,4.52c8.52,5.09,12.79,11.57,12.79,19.44c0,5.6-1.88,10.15-5.63,13.66    c-3.75,3.5-8.63,5.25-14.63,5.25c-6.91,0-13.19-2.12-18.86-6.37v-12.71c5.4,6.85,11.66,10.27,18.76,10.27    c3.14,0,5.74-0.87,7.83-2.62c2.08-1.75,3.13-3.93,3.13-6.56C1186.83,315.08,1183.76,311.04,1177.62,307.23z"></path>
	</g>
	<path class="st0" d="M784.92,218.08h16.03v119.75h-17.23v-93.17l-36.82,46.29h-3.17l-37.24-46.29v93.17h-17.14V218.08h16.23   l39.79,49.18L784.92,218.08z"></path>
</g>
<g>
	
		<rect x="574.71" y="20.6" transform="matrix(0.7071 -0.7071 0.7071 0.7071 138.6653 448.871)" class="st1" width="72.91" height="72.91"></rect>
	<path class="st0" d="M679.88,218.35v-9.46h9.46h16.23h4.51l2.84,3.51l32.42,40.07l32.21-40.04l2.84-3.53h4.53h16.03h9.46v9.46   v24.03c61.69,0,123.48,0,185.43,0c-66.66-52.43-131.39-103.35-196.43-154.5c-13.51,10.01-26.38,19.53-39.73,29.42   c9.68,13.6,18.75,26.35,27.83,39.1c-0.54,0.39-1.08,0.79-1.62,1.18c-34.97-32.3-69.93-64.59-105.27-97.23   c-20.09,18.28-39.37,35.82-59.02,53.7c16.12,21.71,31.61,42.56,47.09,63.4c-0.42,0.37-0.84,0.75-1.26,1.12   c-50.08-47.3-100.16-94.6-151.11-142.72c-34.4,38.1-67.33,74.56-100.77,111.6c20.14,18.05,39.81,35.68,59.48,53.31   c-28.87-15.78-56.47-33.05-83.7-50.89c-6.13-4.02-10.03-3.93-15.93,0.61c-37.27,28.67-74.91,56.85-112.41,85.23   c-2.42,1.83-4.65,3.9-7.92,6.67c141.84,0,283.21,0,424.83,0V218.35z"></path>
</g>
</svg>
